<?xml version="1.0" encoding="UTF-8"?>
<svg version="1.1" viewBox="0 0 457.20001 304.80001" width="457.20001" height="304.80001" xmlns="http://www.w3.org/2000/svg" xmlns:cc="http://creativecommons.org/ns#" xmlns:dc="http://purl.org/dc/elements/1.1/" xmlns:rdf="http://www.w3.org/1999/02/22-rdf-syntax-ns#">
<metadata>
<rdf:RDF>
<cc:Work rdf:about="">
<dc:format>image/svg+xml</dc:format>
<dc:type rdf:resource="http://purl.org/dc/dcmitype/StillImage"/>
<dc:title/>
</cc:Work>
</rdf:RDF>
</metadata>
<g transform="translate(0 7.8)">
<g transform="matrix(.33446 0 0 .33446 -24.876 -4.0237)">
<path d="m168.91 801.63c-22.572-6.891-43.748-26.381-50.64-46.608-8.9344-26.221-10.56-19.25 73.855-316.78 14.315-50.455 37.293-131.9 51.062-180.99s27.901-95.167 31.404-102.39c3.5033-7.224 12.429-19.679 19.834-27.678 25.138-27.152 51.015-39.109 89.933-41.554l23.3-1.4638-1.7546 7.2043c-2.8012 11.502-59.663 214.03-160.35 571.14-19.014 67.436-35.712 126.85-37.106 132.02l-2.5351 9.4147-15.4-0.2133c-8.4702-0.1171-18.19-1.0645-21.599-2.1052z" fill="#0a4bed"/>
<path d="m369.74 758.62v-45.953l21.694-1.5722c42.446-3.076 57.948-10.01 67.786-30.321 4.8414-9.9946 5.9492-16.89 6.798-42.312 0.9034-27.057 0.56469-30.372-3.103-30.372-8.1062 0-23.201-9.8563-35.198-22.983-11.414-12.489-28.226-39.986-28.226-46.166 0-1.8855 10.93-2.7521 34.711-2.7521h34.711v-8.2277c0-10.013 6.4433-32.441 11.827-41.167 12.346-20.012 27.588-30.694 53.008-37.149 15.97-4.0556 18.223-5.3275 18.223-10.287 0-5.0505-2.2876-6.2153-21.282-10.836-32.089-7.8069-48.851-21.069-58.421-46.222-3.4337-9.0247-4.4688-24.492-5.7964-86.607-1.3172-61.632-2.3517-77.225-5.5924-84.298-9.3468-20.398-25.905-29.789-55.818-31.655-13.596-0.84822-23.542-0.43646-23.542-0.43646s7.7738-26.283 13.979-50.794l12.162-44.334 31.098 1.7099c70.669 3.8857 113 23.967 133.9 63.168 13.481 25.293 15.529 39.105 17.517 118.13 1.5067 59.899 2.5243 73.551 6.0956 81.784 8.3231 19.189 21.38 28.385 43.72 30.795l13.636 1.4706 0.66461 57.271 0.66461 57.271-16.22 2.6877c-22.246 3.6862-31.712 10.127-40.155 27.321l-6.9378 14.128-1.4611 75.62c-1.1753 60.83-2.3104 78.772-5.8033 91.735-13.197 48.98-40.959 75.821-92.793 89.716-15.148 4.0607-29.274 5.3323-70.397 6.3374l-51.446 1.2575z" fill="#d895ca"/>
<path d="m785.62 341.86c-13.309-4.9284-16.712-8.5071-16.712-17.575 0-8.1002 4.6154-13.992 13.426-17.139 4.3761-1.5629 4.1331-2.3306-3.0992-9.7924-10.737-11.078-10.704-21.797 0.0964-31.887l7.9439-7.4207-5.1744-4.1112c-7.2644-5.7719-10.713-13.468-10.713-23.906 0-13.572 5.8434-22.376 19.147-28.848 9.8632-4.7984 15.681-5.7435 34.778-5.6498 20.804 0.10204 22.934-0.31884 22.934-4.5321 0-12.559 13.257-26.712 25.021-26.712 5.6566 0 6.774 1.2828 8.0987 9.2975 2.4079 14.568 2.0807 15.496-5.4624 15.496-4.016 0-9.0821 2.2413-11.764 5.2043-4.6515 5.1399-4.6295 5.2703 1.7768 10.537 8.626 7.0917 12.082 14.279 12.082 25.128 0 23.975-16.887 34.548-55.08 34.487-16.887-0.027-24.44 0.87898-25.266 3.0303-2.3009 5.996 5.0959 7.8943 34.478 8.8483 32.789 1.0647 42.18 4.1324 48.435 15.823 4.746 8.8703 4.2475 26.385-0.97788 34.36-8.3468 12.739-22.15 17.287-54.895 18.087-20.892 0.51054-32.528-0.30078-39.073-2.7246zm65.567-23.324c1.4721-1.4721 1.9905-4.4644 1.152-6.6495-1.287-3.354-5.4904-3.8627-26.982-3.2658-23.368 0.64903-25.458 1.1049-25.458 5.554 0 3.0184 2.3384 5.5525 6.1984 6.7172 8.6687 2.6158 41.851 0.882 45.089-2.3559zm-17.392-79.014c5.8789-5.3204 5.7817-13.834-0.22014-19.265-6.431-5.82-15.365-4.0754-19.809 3.8681-3.2745 5.8535-3.2128 7.2064 0.59414 13.017 4.8685 7.4303 12.784 8.3999 19.435 2.3808z" fill="#0a4bed"/>
<path d="m902.8 180.92c-4.9258-2.4799-6.3567-5.3097-6.9697-13.783-0.42424-5.8644 0.48963-12.182 2.0308-14.039 6.3663-7.671 30.549-7.4827 38.33 0.29836 3.9683 3.9683 5.0756 17.433 1.8508 22.504-4.8166 7.575-24.576 10.389-35.242 5.0193z" fill="#0a4bed"/>
<path d="m897.84 248.58v-52.066h39.669v104.13h-39.669z" fill="#0a4bed"/>
<path d="m959.82 248.58v-52.066h37.19v11.157c0 6.1364 0.8367 11.154 1.8595 11.15 1.0227-4e-3 4.0908-4.1498 6.8182-9.2136 5.5629-10.329 19.315-17.175 29.41-14.641 5.5049 1.3816 5.963 2.5075 4.912 12.073-2.3844 21.699-2.3886 21.706-14.201 21.706-7.147 0-12.975 1.7303-17.308 5.1386-6.4313 5.0588-6.5328 5.617-6.5328 35.95v30.812h-42.149z" fill="#0a4bed"/>
<path d="m1070.2 298.43c-2.7272-1.1889-7.19-4.6398-9.9173-7.6688-4.6572-5.1723-5.0033-9.5614-5.6924-72.193l-0.7336-66.686h39.897v54.384c0 29.911 1.0881 57.246 2.4179 60.744 1.8629 4.8997 4.1465 6.3598 9.9467 6.3598 7.4532 0 7.5128 0.1057 5.9427 10.537-0.8723 5.7955-2.5621 11.6-3.7552 12.899-2.8794 3.1356-31.81 4.3688-38.106 1.6243z" fill="#0a4bed"/>
<path d="m1138.3 296.73c-21.577-6.8988-23.47-12.031-9.319-25.263l6.0123-5.6221 11.625 5.1422c14.093 6.234 32.112 5.9256 33.343-0.57059 0.5864-3.0931-2.01-4.9534-9.896-7.0906-30.11-8.1603-36.833-10.873-43.062-17.374-10.028-10.467-9.4435-24.639 1.4822-35.911 4.5195-4.6629 12.203-9.8384 17.074-11.501 13.503-4.6089 44.058-3.9517 57.628 1.2395 17.586 6.7272 18.901 9.6454 9.6265 21.356l-7.8139 9.866-7.9368-4.8393c-5.1721-3.1536-12.42-4.8425-20.807-4.8486-22.181-0.0159-19.426 10.15 3.6845 13.598 33.534 5.0031 49.154 22.778 38.936 44.31-6.5981 13.905-24.199 21.467-49.452 21.249-10.982-0.095-24.988-1.7779-31.125-3.7399z" fill="#0a4bed"/>
<path d="m799.88 491.89c-12.793-5.8117-25.315-20.132-27.421-31.358-0.90959-4.8486-1.1797-15.371-0.60013-23.383 2.1655-29.938 22.066-45.999 56.718-45.774 24.274 0.15772 38.654 6.6198 46.738 21.005 3.1159 5.5441 5.2738 10.444 4.7953 10.888-0.47854 0.44419-8.68 3.1378-18.225 5.9857-12.504 3.7307-17.631 4.365-18.341 2.2694-0.54235-1.5998-3.5299-5.4525-6.639-8.5616-4.9116-4.9116-6.6473-5.3062-13.237-3.0091-5.9244 2.0653-8.171 4.8243-10.267 12.609-3.1139 11.564-1.0289 27.721 4.2597 33.01 7.1416 7.1416 22.879 3.2449 26.116-6.4666 0.64098-1.923 6.4001-1.1577 18.576 2.4683 15.454 4.6024 17.482 5.8839 16.324 10.314-2.078 7.9464-14.865 19.244-24.951 22.045-14.866 4.1289-42.573 3.0779-53.844-2.0425z" fill="#0a4bed"/>
<path d="m921.29 491.85c-21.475-9.7549-32.08-34.531-26.141-61.071 5.8725-26.241 23.98-39.222 54.756-39.254 12.773-0.0131 21.502 1.3681 27.877 4.4112 38.561 18.404 39.023 78.523 0.73749 95.913-13.685 6.2163-43.545 6.2163-57.23 0zm41.433-28.191c1.6914-3.0682 3.0753-11.715 3.0753-19.215 0-18.082-3.8346-24.804-14.121-24.755-12.812 0.061-15.048 2.9418-16.189 20.862-1.3226 20.77 2.9899 28.687 15.626 28.687 6.2852 0 9.3435-1.4696 11.609-5.5785z" fill="#0a4bed"/>
<path d="m1041.4 490.9c-16.867-11.234-24.076-42.124-16.174-69.305 8.9663-30.843 43.23-41.504 61.938-19.271 3.3021 3.9243 6.6857 6.4531 7.5192 5.6196s1.5154-14.718 1.5154-30.854v-29.339h39.669v148.76h-37.19v-9.9174c0-5.4545-0.4265-9.9174-0.9479-9.9174s-5.4108 4.4628-10.865 9.9174c-9.1527 9.1528-10.963 9.9174-23.479 9.9174-9.9526 0-15.803-1.4932-21.986-5.6112zm44.96-24.183c11.15-5.9676 11.15-38.576 0-44.544-13.476-7.212-22.393 1.657-22.393 22.272s8.9171 29.484 22.393 22.272z" fill="#0a4bed"/>
<path d="m1181.6 491.85c-11.28-5.1236-22.543-17.216-25.28-27.142-2.3815-8.6343-2.345-32.019 0.064-40.781 2.6848-9.7664 18.023-25.879 27.342-28.723 25.334-7.7303 48.479-4.8338 62.958 7.8788 11.082 9.7302 15.597 20.245 15.597 36.323v12.476h-34.711c-37.375 0-39.564 0.89471-30.272 12.37 5.4905 6.7805 20.908 7.4973 27.766 1.2909 2.5467-2.3047 6.6628-3.5984 9.1469-2.8748s9.2582 2.5407 15.054 4.038c5.9756 1.5439 10.537 4.2001 10.537 6.1358 0 4.94-13.527 16.956-22.927 20.366-12.925 4.6885-43.625 3.9346-55.275-1.3576zm43.491-58.288c0-6.6016-8.794-14.531-16.116-14.531-4.398 0-8.8615 2.128-11.627 5.5433-8.1891 10.113-6.0205 12.432 11.627 12.432 12.101 0 16.116-0.85805 16.116-3.4443z" fill="#0a4bed"/>
<path d="m781.98 693.12c-3.041-0.5874-7.7828-3.933-10.537-7.4347-4.7524-6.0417-5.0081-9.8938-5.0081-75.454v-69.087h14.876v65.525c0 74.146 0.19006 74.943 17.326 72.644 8.6508-1.1603 8.9608-0.94035 7.9906 5.6701-0.78327 5.3368-2.6905 7.2135-8.5143 8.3783-4.1277 0.82554-8.2022 1.349-9.0545 1.1633-0.85228-0.1857-4.0377-0.81823-7.0787-1.4056z" fill="#0a4bed"/>
<path d="m826.18 557.88c-3.6087-9.708 1.1918-16.628 11.584-16.698 7.4823-0.0504 12.127 9.6141 8.1726 17.004-4.0075 7.4881-16.934 7.2878-19.757-0.30622z" fill="#0a4bed"/>
<path d="m828.42 640.32v-52.066h14.876v104.13h-14.876z" fill="#0a4bed"/>
<path d="m880.48 640.15v-52.231l6.8182 0.78452c5.6819 0.65377 7.036 2.2307 8.1249 9.4622 1.2312 8.176 1.4771 8.3739 4.2531 3.4224 7.0207-12.523 35.91-17.471 52.528-8.997 17.068 8.703 18.674 13.541 19.604 59.056l0.83315 40.734h-15.303v-34.341c0-37.297-2.1566-47.55-11.255-53.512-7.5293-4.9334-24.033-4.9934-33.454-0.12162-12.925 6.6836-15.82 15.95-16.836 53.884l-0.91343 34.091h-14.401z" fill="#0a4bed"/>
<path d="m1034.5 691.15c-22.214-6.9284-34.377-28.315-31.864-56.027 2.7019-29.797 20.286-46.871 48.27-46.871 16.485 0 27.456 4.4787 36.081 14.729 8.117 9.6464 8.2439 11.098 1.2429 14.222-4.6457 2.073-6.8059 1.0207-14.492-7.0591-7.9735-8.3819-10.4-9.4952-20.697-9.4952-6.4152 0-14.945 1.6965-18.955 3.7701-10.005 5.1737-17.256 20.321-17.256 36.046 0 25.606 12.923 39.497 36.761 39.514 11.12 8e-3 14.288-1.072 20.049-6.8328 3.7631-3.7631 7.3265-8.2955 7.9187-10.072 0.8277-2.4833 2.6744-2.6226 7.9874-0.60259l6.9106 2.6274-4.4829 7.6812c-5.6563 9.6918-14.137 15.803-26.797 19.31-12.413 3.4382-17.104 3.2947-30.677-0.93887z" fill="#0a4bed"/>
<path d="m1262.3 692.68c-3.6312-0.98643-7.9937-5.2482-10.533-10.29-3.8043-7.5526-4.3355-16.726-4.3389-74.929v-66.322h14.876v65.525c0 74.146 0.1901 74.943 17.326 72.644 8.6509-1.1603 8.9609-0.94035 7.9907 5.6701-0.7833 5.3368-2.6905 7.2135-8.5143 8.3783-8.3423 1.6684-8.1376 1.6767-16.802-0.6771z" fill="#0a4bed"/>
<path d="m1309.4 640.32v-52.066h6.1984c4.7638 0 6.2071 1.2911 6.2363 5.5785 0.021 3.0682 1.0167 7.1239 2.2128 9.0126 1.7516 2.7656 2.6928 2.4666 4.835-1.5363 6.5377-12.216 35.801-17.096 52.242-8.7121 17.068 8.703 18.674 13.541 19.604 59.056l0.8331 40.734h-15.303v-31.921c0-38.454-1.2227-45.485-9.3186-53.58-7.8347-7.8347-25.244-8.573-36.748-1.5583-13.017 7.938-15.917 17.882-15.917 54.584v32.477h-14.876z" fill="#0a4bed"/>
<path d="m763.95 722.13v-7.438h114.05v14.876h-114.05z" fill="#0a4bed"/>
<path d="m1154.1 692.49c-23.944-5.7052-35.554-22.49-35.554-51.401 0-20.657 3.6062-31.229 13.951-40.902 9.6004-8.9763 18.391-11.945 35.178-11.88 31.443 0.12147 50.071 19.393 50.031 51.762-0.033 26.772-11.603 44.725-32.901 51.05-13.603 4.0397-18.574 4.2618-30.704 1.3715zm31.706-16.385c15.398-7.9628 21.542-36.781 12.219-57.316-5.7653-12.698-15.413-18.14-32.162-18.14-16.767 0-28.203 9.6086-32.436 27.251-4.3753 18.239-1.2791 31.562 9.9421 42.783 8.3518 8.3519 10.615 9.3041 22.116 9.3041 7.0464 0 16.191-1.7475 20.321-3.8834z" fill="#0a4bed"/>
</g>
</g>
</svg>
