<?xml version="1.0" encoding="UTF-8"?>
<svg width="1396" height="185.62" version="1.1" viewBox="0 0 1396.0044 185.61656" xmlns="http://www.w3.org/2000/svg" xmlns:cc="http://creativecommons.org/ns#" xmlns:dc="http://purl.org/dc/elements/1.1/" xmlns:rdf="http://www.w3.org/1999/02/22-rdf-syntax-ns#">
<metadata>
<rdf:RDF>
<cc:Work rdf:about="">
<dc:format>image/svg+xml</dc:format>
<dc:type rdf:resource="http://purl.org/dc/dcmitype/StillImage"/>
<dc:title/>
</cc:Work>
</rdf:RDF>
</metadata>
<g transform="translate(-256.5 -884.08)" fill="#fff">
<path d="m472.81 1068.8c-15.948-3.022-23.438-8.3966-23.438-16.819 0-5.2009 4.4201-11.425 9.4638-13.326 1.7696-0.667 1.524-1.3904-1.1411-3.3606-8.133-6.0126-7.882-21.234 0.43996-26.687l3.9173-2.5668-3.8377-3.0187c-5.4676-4.3008-8.136-16.227-5.5567-24.836 3.7498-12.516 17.087-18.83 39.771-18.83h12.802l0.91989-4.5994c1.5801-7.9007 8.7105-14.343 16.896-15.266 3.9422-0.4444 7.523-0.1995 7.9573 0.5442s1.2797 5.3951 1.8786 10.336l1.0888 8.9844h-5.2825c-2.9054 0-6.6474 1.0199-8.3156 2.2664-2.9767 2.2244-2.9674 2.3133 0.50352 4.7908 4.6723 3.335 9.7447 13.488 9.7447 19.505 0 6.3282-5.0587 16.048-10.057 19.323-6.8523 4.4898-22.347 7.5928-34.976 7.0045-7.7042-0.3589-11.919 0.054-12.31 1.2051-0.413 1.2149 6.0001 1.9701 20.952 2.4672 18.182 0.6044 22.579 1.2486 28.156 4.1238 9.0106 4.6462 11.861 10.604 11.064 23.125-0.52847 8.2994-1.3532 10.64-5.142 14.595-6.5041 6.7888-19.399 11.112-35.187 11.796-7.3047 0.3164-16.445-0.024-20.312-0.7571zm32.422-21.367c1.9336-0.5182 3.5156-1.9149 3.5156-3.1037 0-1.7023-3.4656-2.1615-16.314-2.1615-15.856 0-21.366 1.6347-16.308 4.8383 2.4416 1.5465 23.762 1.8592 29.106 0.4269zm-9.0628-55.952c2.6884-3.2393 1.3929-10.326-2.3378-12.787-2.7192-1.7941-3.7125-1.7489-6.6406 0.302-3.7974 2.6598-4.6637 9.7639-1.5682 12.86 2.5627 2.5627 8.2774 2.3599 10.547-0.3743z"/>
<path d="m545.18 954.68c-7.6278-3.0733-9.3211-16.303-2.9075-22.716 3.2145-3.2145 5.3434-3.8352 13.153-3.8352 11.717 0 13.798 0.821 16.801 6.6292 3.2127 6.2126 1.6497 14.182-3.5899 18.303-4.3486 3.4206-16.845 4.2833-23.457 1.6193z"/>
<path d="m540 999.22v-38.281h31.25v76.563h-31.25z"/>
<path d="m585.31 999.22v-38.281h28.125v4.4271c0 6.6094 1.2798 6.7687 6.7542 0.8406 5.2995-5.7387 13.107-8.0667 20.679-6.1662 4.134 1.0376 4.1574 1.124 3.1143 11.519-1.6093 16.038-1.6476 16.103-8.7605 14.966-7.6399-1.2216-14.557 1.4904-16.897 6.6245-1.0217 2.2423-1.7652 12.399-1.7652 24.113v20.239h-31.25z"/>
<path d="m663.38 1037.8c-12.99-5.7574-14.01-10.397-14.01-63.759v-44.335h32.762l0.41574 42.578 0.41574 42.578 5.8594 0.485c5.3612 0.4437 5.8594 0.8835 5.8594 5.1731v4.6883l6.4678-7.5169c3.5573-4.1343 7.0379-7.7397 7.7347-8.0119s3.4094 1.0891 6.0279 3.025c5.3087 3.9249 22.312 6.1574 24.157 3.1718 0.97158-1.572-3.6759-3.2674-21.731-7.9271-25.288-6.5266-28.091-31.965-4.8816-44.307 5.5097-2.9299 8.9363-3.4263 23.632-3.4236 15.624 0 17.916 0.3853 25.196 4.2041 11.22 5.8857 11.569 8.0742 2.7204 17.058-6.0063 6.098-7.6651 7.0631-9.0421 5.2608-2.5697-3.3635-9.6329-5.473-18.325-5.473-12.051 0-8.67 3.1001 7.6548 7.0185 22.662 5.4393 28.772 12.168 26.491 29.172-0.9714 7.2423-5.4288 12.659-14.383 17.478-5.3151 2.8604-8.8209 3.3635-23.438 3.3635-18.233 0-27.695-2.411-34.573-8.8103l-3.3232-3.0917-1.0292 4.1009c-0.67883 2.7047-2.8551 4.8637-6.3922 6.3416-5.4875 2.2928-19.965 2.8651-24.266 0.9591z"/>
<path d="m839.39 1036c-9.8668-3.9699-14.567-8.4089-19.115-18.055-6.9237-14.682-4.1056-36.417 6.1479-47.418 7.5585-8.1092 14.666-10.395 32.325-10.395 13.975 0 17.371 0.5159 22.915 3.4803 7.357 3.9336 12.603 10.438 13.982 17.337l0.93475 4.6738-13.283 4.0515c-7.3056 2.2283-13.915 4.0515-14.687 4.0515-0.77222 0-2.0768-2.2852-2.899-5.0781-1.2259-4.1642-2.382-5.1643-6.423-5.5566-6.9984-0.6794-9.9157 4.0584-9.9157 16.103 0 11.949 2.9325 16.788 9.7582 16.104 4.5926-0.4606 6.257-2.0879 8.0298-7.8507 0.77163-2.5084 1.3182-2.5202 8.3159-0.1803 22.726 7.5993 21.18 6.6801 20.123 11.964-1.1966 5.983-6.0611 11.316-14.196 15.561-9.156 4.7789-31.538 5.4219-42.014 1.207z"/>
<path d="m925.37 1036c-8.947-3.4948-12.463-6.3993-17.984-14.856-3.7073-5.6786-4.0814-7.6783-4.0919-21.875-0.0122-16.352 0.89686-19.167 9.2566-28.668 7.4972-8.5207 23.395-12.628 40.572-10.482 11.311 1.4132 22.172 8.551 27.473 18.056 3.3813 6.0624 3.9223 8.9858 3.9267 21.216 5e-3 13.016-0.38131 14.819-4.683 21.875-3.7275 6.1141-6.7388 8.7305-14.696 12.768-8.5725 4.3499-11.597 5.0676-21.093 5.005-7.0235-0.046-13.869-1.1602-18.681-3.0398zm25.509-23.347c0.88962-1.6622 1.6175-7.685 1.6175-13.384 0-13.261-1.6473-16.406-8.5938-16.406-6.9662 0-9.2643 4.0697-9.2643 16.406 0 12.337 2.2981 16.406 9.2643 16.406 3.6989 0 5.8598-0.9361 6.9763-3.0223z"/>
<path d="m1011.1 1036.6c-12.562-6.52-18.638-18.664-18.709-37.392-0.0707-18.728 8.3551-34.348 20.731-38.433 8.655-2.8564 20.012-1.028 25.344 4.0802l4.5644 4.3729 0.4407-19.385 0.4407-19.385 16.016-0.4452 16.016-0.4453v108.04l-14.453-0.4493-14.453-0.4493-0.9662-5.4687c-0.5314-3.0078-1.0588-4.5744-1.1719-3.4812-0.1131 1.0931-3.5074 4.0814-7.5429 6.6406-8.4353 5.3495-18.556 6.1979-26.256 2.2009zm29.599-24.458c3.2772-4.6788 3.2772-21.188 0-25.867-2.8803-4.1122-7.9188-4.4877-11.898-0.8868-3.9241 3.5513-4.1182 23.119-0.2715 27.369 3.5158 3.8849 9.2192 3.5966 12.169-0.6153z"/>
<path d="m1113.4 1037.7c-8.2263-2.6682-17.044-8.0898-19.922-12.25-8.1448-11.771-10.182-26.009-5.8207-40.693 4.7582-16.023 16.724-24.105 37.162-25.102 11.116-0.5422 13.061-0.1681 21.875 4.207 6.0949 3.0253 11.019 6.8017 13.31 10.207 4.1299 6.1398 7.5669 23.138 5.9672 29.511l-1.0683 4.2567h-48.759l2.3237 3.5156c3.4117 5.1618 15.553 5.8355 18.905 1.0491l2.3865-3.4072 12.084 3.7284c6.6464 2.0507 12.333 4.475 12.637 5.3874 1.1587 3.4762-6.8108 12.511-14.364 16.285-6.0866 3.0406-10.569 3.9757-20.31 4.237-6.875 0.1844-14.258-0.2348-16.406-0.9317zm21.875-48.422c0-7.0174-11.064-9.3374-15.921-3.3385-4.3974 5.4305-3.5189 6.2722 6.5462 6.2722 8.1295 0 9.375-0.3897 9.375-2.9337z"/>
<path d="m1209.4 1033.8-5.3125-5.3125v-101.88h14.018l0.4129 48.828 0.4129 48.828 9.0162-0.1833 9.0163-0.1833-0.9872 5.6521c-1.2992 7.438-4.3147 9.5583-13.594 9.5583-6.6395 0-8.3839-0.7138-12.983-5.3125z"/>
<path d="m1203.6 1063.1c-0.5871-0.5871-1.0675-3.7627-1.0675-7.057v-5.9896h82.992l-0.4805 6.6406-0.4804 6.6406-39.948 0.4165c-21.972 0.229-40.428-0.064-41.016-0.6511z"/>
<path d="m1247 1035.5c-0.4194-1.0929-0.5731-18.144-0.3416-37.891l0.4209-35.904 6.6406-0.4804 6.6406-0.4805v76.742h-6.299c-3.655 0-6.6191-0.834-7.0615-1.9869z"/>
<path d="m1247.2 945.46c-4.0989-4.5293-2.7385-12.749 2.6021-15.722 3.8584-2.1483 4.7354-2.1483 8.5938 0 8.6071 4.7925 5.4113 18.701-4.2969 18.701-2.3117 0-5.4163-1.3405-6.899-2.9788z"/>
<path d="m1283.8 999.22v-38.281h6.25c5.9213 0 6.25 0.2499 6.25 4.7507v4.7508l4.285-3.9734c6.0247-5.5864 13.416-7.6197 24.157-6.6458 10.907 0.9891 18.337 5.4409 23.037 13.804 2.9167 5.1895 3.2083 8.3518 3.2083 34.793v29.084h-14.062v-25.548c0-14.051-0.7232-27.623-1.6071-30.158-4.8406-13.886-27.308-12.707-34.331 1.8019-2.7033 5.5843-3.1241 9.6493-3.1241 30.179v23.725h-14.062z"/>
<path d="m1390.7 1036.9c-14.219-6.1914-21.754-19.224-21.754-37.628 0-24.604 13.745-39.844 35.938-39.844 13.842 0 25.711 6.6296 31.414 17.547 2.1778 4.169 2.0993 4.3198-3.4553 6.6406-7.5998 3.1754-7.9739 3.0959-10.757-2.2863-6.6016-12.766-27.172-12.186-35.319 0.9959-4.7348 7.6611-4.7348 26.232 0 33.893 8.401 13.593 30.393 13.665 36.82 0.1203 1.3958-2.9414 2.7705-5.348 3.0549-5.348 2.1679 0 11.836 5.0232 11.836 6.1495 0 3.574-10.885 15.29-17.15 18.46-8.0477 4.0713-22.822 4.6981-30.627 1.2993z"/>
<path d="m1472.9 1037c-8.0167-2.5566-18.161-13.094-20.607-21.404-2.9766-10.115-2.6439-25.96 0.7295-34.749 8.7662-22.838 41.298-29.2 59.537-11.643 15.713 15.126 15.713 44.845 0 59.971-3.7412 3.6015-9.47 7.289-12.731 8.1944-7.4025 2.0557-19.861 1.8847-26.929-0.3696zm26.17-13.63c14.689-8.9556 14.689-39.406 0-48.361-6.6742-4.0692-17.294-4.1345-23.734-0.146-7.9812 4.9425-11.11 11.79-11.116 24.327-0.01 12.308 3.9248 20.867 11.465 24.962 6.1077 3.3174 17.274 2.9441 23.386-0.7817z"/>
<path d="m1549.8 1036.7c-7.8871-5.6973-8.1942-7.979-8.1942-60.873v-49.296h14.062l0.024 47.266c0.013 25.996 0.6417 48.241 1.3968 49.434 0.9981 1.576 3.5963 1.9542 9.5167 1.3853l8.1437-0.7825-1.0183 6.3685c-0.5601 3.5027-1.3526 6.7027-1.761 7.1111s-4.7707 1.0105-9.6941 1.338c-6.5304 0.4343-9.9047-0.093-12.476-1.9507z"/>
<path d="m1585.3 999.22v-38.281h6.25c5.6344 0 6.25 0.3869 6.25 3.9284v3.9284l6.344-4.1983c7.4776-4.9484 20.044-6.5523 28.771-3.6721 8.1248 2.6815 16.089 10.192 17.963 16.939 0.8755 3.152 1.5957 17.86 1.6005 32.684l0.01 26.953h-14.062v-25.859c0-27.616-1.0317-32.341-8.1512-37.328-7.2447-5.0744-21.73-1.5304-27.304 6.6804-2.3866 3.5153-2.907 8.2302-3.3482 30.334l-0.5223 26.172h-13.799v-38.281z"/>
</g>
<g transform="translate(-182.39 -875.75)" fill="#fff">
<path d="m196.08 1055.2c-5.6444-1.7232-10.94-6.5969-12.663-11.655-2.2341-6.5568-2.6406-4.8136 18.468-79.213 3.5796-12.617 9.3255-32.983 12.769-45.259s6.9769-23.797 7.8529-25.604c0.87603-1.8064 3.1079-4.921 4.9598-6.9212 6.286-6.7897 12.757-9.7795 22.489-10.391l5.8263-0.36605-0.43875 1.8015c-0.70047 2.8761-14.919 53.52-40.098 142.82-4.7547 16.863-8.9301 31.719-9.2788 33.014l-0.63393 2.3542-3.851-0.053c-2.118-0.029-4.5485-0.2662-5.401-0.5264z"/>
<path d="m246.29 1044.4v-11.491l5.4248-0.3932c10.614-0.7692 14.49-2.5031 16.951-7.582 1.2106-2.4993 1.4876-4.2235 1.6999-10.581 0.2259-6.7658 0.14121-7.5948-0.77594-7.5948-2.027 0-5.8016-2.4647-8.8016-5.7471-2.8542-3.123-7.0581-9.9989-7.0581-11.544 0-0.4715 2.733-0.6882 8.6798-0.6882h8.6798v-2.0574c0-2.5037 1.6112-8.1122 2.9574-10.294 3.0872-5.0041 6.8987-7.6753 13.255-9.2896 3.9934-1.0142 4.5568-1.3322 4.5568-2.5723 0-1.2629-0.57202-1.5542-5.3217-2.7098-8.0241-1.9522-12.216-5.2685-14.609-11.558-0.85861-2.2567-1.1175-6.1244-1.4494-21.657-0.32938-15.412-0.58806-19.311-1.3984-21.079-2.3373-5.1008-6.4778-7.4489-13.958-7.9156-3.3998-0.21211-5.887-0.10914-5.887-0.10914s1.9439-6.5722 3.4957-12.701l3.0413-11.086 7.7763 0.42758c17.671 0.97165 28.257 5.9933 33.482 15.796 3.3711 6.3248 3.8833 9.7786 4.3803 29.538 0.37678 14.978 0.63122 18.392 1.5243 20.451 2.0813 4.7983 5.3462 7.098 10.933 7.7005l3.4099 0.36774 0.16619 14.321 0.1662 14.321-4.0559 0.67208c-5.5628 0.92179-7.9298 2.5323-10.041 6.8318l-1.7349 3.5328-0.36537 18.909c-0.29389 15.211-0.57774 19.698-1.4512 22.939-3.3001 12.248-10.242 18.96-23.204 22.434-3.788 1.0154-7.3203 1.3334-17.604 1.5848l-12.865 0.3144z"/>
</g>
</svg>
