<svg xmlns="http://www.w3.org/2000/svg" xmlns:xlink="http://www.w3.org/1999/xlink" viewBox="0 0 209.07 42.88"><defs><style>.cls-1{fill:none;}.cls-2{clip-path:url(#clip-path);}.cls-3{fill:#d3232a;}</style><clipPath id="clip-path" transform="translate(0 0)"><rect class="cls-1" width="209.07" height="42.88"/></clipPath></defs><title>Asset 2</title><g id="Layer_2" data-name="Layer 2"><g id="Layer_1-2" data-name="Layer 1"><g class="cls-2"><path class="cls-3" d="M201.61,24l-.26.28a0,0,0,0,0,0,0c.27-4.8-7.37-4-13.06-2.8,5.56-4.09,1-8.41,1-9a4.56,4.56,0,0,0,2.23.68A17.33,17.33,0,0,1,189.8,9.6l-.05-.21,1.06.83a31.3,31.3,0,0,0,8.78,5.42,4.93,4.93,0,0,1,3.32,4.88,5.41,5.41,0,0,1-1.3,3.52M182.13,35.18a4.43,4.43,0,0,1-1.54,2.45c-.05-.77-.24-1.92-.33-2.73-.68.17-3.1.41-4-.29,2.41-.56,5.18-3.5,5.76-4.24.67,1.06.56,3.53.16,4.81m-6.08-22.76c.8-1.2,2.43-.6,2.37-4.31,3,3.71,1.22,5.65.31,6.32-1.86,1.36-3.89-.18-2.68-2M175.37,19c-.49,1.17-2,.85-2.07.4-.21-1,.64-1,1.66-2.22.71-.84.67,1.2.41,1.82m-2.87,5h-.1c-1.84-.76-1,1.16-2.94,1.16h-.09c-1.93,0-1.1-1.92-2.93-1.16h-.11a.27.27,0,0,1-.27-.27.23.23,0,0,1,0-.14.6.6,0,0,1,.31-.22,9.11,9.11,0,0,1,6,0,.58.58,0,0,1,.31.21h0a.23.23,0,0,1,0,.14.27.27,0,0,1-.27.27m32.94,5.68A9.77,9.77,0,0,0,206.8,19h0c-1.8-4-5.67-7.2-6.33-10.43-.32-1.57,1.67-1.65,2.45-.69s1.14,1.78,2.72,2c1.37.22,2.6-.83,3.43-1.14-.2-.11-3.59-1.66-6.42-2.82-7.61-3.08-3.19,6.15-2.7,7.6l0,0A45,45,0,0,1,190,7.1a46.43,46.43,0,0,0-6.94-4.81l0,0C179.7.37,177.72,0,175.93,0a6.73,6.73,0,0,0-6.74,4.6,35.06,35.06,0,0,0,3.64,0A2.48,2.48,0,0,1,170.28,6c-2.55,0-3.72,0-4.25,0-3.89.23-2.56,5.33-2.56,5.33-1.54.32-1.78-2.39-1.69-3.23-.85.39-4.51,6.24.67,7.24-.43,4,.09,7.86,1.57,8.8.06,0,.07,0,.13,0,1.4-.33,1.72,5.44,1.5,6.39a2.76,2.76,0,0,0,1.59-.59h0a1.59,1.59,0,0,1,.78,1.37,1.61,1.61,0,0,1-.87,1.43h0c2.89,1,5.32-1.74,5-3.65a1.18,1.18,0,0,1,.94,1.16,1.27,1.27,0,0,1-.13.55,4.74,4.74,0,0,0,2.7-2.83c0,3.2-3.36,5.27-4.7,6.72-.27.62.49,2.4.72,2.85.45.4.67,0,3.59,1,.48.16,2.07.89,2.07,1.2a8.17,8.17,0,0,1-.65.53c-.14.64-.49,2.06-.49,2.06h6.22a5.23,5.23,0,0,1,.07-1.38,3.44,3.44,0,0,1,.71-1.45,5.76,5.76,0,0,1,2,.14,11.72,11.72,0,0,1-.2-1.48,5.29,5.29,0,0,0,1.63.16c-.63-1.43,0-7.26,4.92-4.35-1.06,3.43-2.61,6-4,6.24a1.15,1.15,0,0,1-.32,0c-.27.61-.51,1.45-.8,2.1H192c0-1.52,1.25-3.71,3.55-5.7a16.84,16.84,0,0,1,2.65-1.87c-.55-.81-.87-1.53-.76-1.77h.07l.54,0a9.71,9.71,0,0,0,2.84-.41c.66,1.55,1.66,3.21,1.43,5a3,3,0,0,1-1.91,2.58c-.31.62-.52,1.45-.81,2.1h5.33a13.1,13.1,0,0,1,2-7.33c-.68-1.55-1.61-3.51-1.44-5.4Z" transform="translate(0 0)"/><path d="M109.94,16.05h-3.6v5.62h-4.21V25h4.21V37.17c0,5.15,3.73,5.71,5.33,5.71a9.07,9.07,0,0,0,4-.82v-3.4a6.67,6.67,0,0,1-3.19.88c-1.62,0-2.5-.51-2.5-3.18V25h5.69V21.67h-5.69V16.05Zm21.21,17.46c0,2.91-1.49,6-5.65,6-2,0-4.29-.86-4.29-3.26s3-3.82,8.88-3.82h1.06v1Zm3.59-4.89c0-4.53-3-7.46-7.66-7.46-3.88,0-6.77,1-8.84,3.14l-.12.13,2.2,2.58.14-.13a8.54,8.54,0,0,1,6-2.38c3.21,0,4.71,1.52,4.71,4.76v.11h-1c-3.5,0-12.78,0-12.78,7.29,0,4.28,3.76,6.22,7.25,6.22a7.86,7.86,0,0,0,6.73-3,22.49,22.49,0,0,0,.27,2.5h3.51a33,33,0,0,1-.38-4.84V28.62Zm22.13,11.56h-.41v-.87H157l.22,0a.62.62,0,0,1,.19.07.4.4,0,0,1,.13.13.46.46,0,0,1,.05.21.42.42,0,0,1-.07.26.28.28,0,0,1-.16.12.62.62,0,0,1-.25.05Zm.67.19a.69.69,0,0,0,.2-.13.52.52,0,0,0,.14-.21.79.79,0,0,0,.05-.29.66.66,0,0,0-.2-.51.88.88,0,0,0-.62-.18h-1v2.51h.31V40.44H157l.7,1.12H158l-.74-1.12a.67.67,0,0,0,.24-.07Zm-9.43-9.84-2.85-.68c-2.74-.63-3.61-1.3-3.61-2.77,0-1.78,1.87-2.58,3.73-2.58a4.31,4.31,0,0,1,4.05,2.67l.1.19,3.17-2.09-.08-.15c-1.29-2.63-3.67-4-7.07-4-3.86,0-7.76,2-7.76,6.39,0,2.79,1.88,4.73,5.41,5.62l2.72.64c2.21.54,3.49,1.17,3.49,2.8,0,2-2.15,2.93-4.29,2.93a5.71,5.71,0,0,1-5-3l-.22-.37-3,2.27.13.2a9.07,9.07,0,0,0,8.09,4.21c3.76,0,8.14-1.71,8.14-6.52,0-2.82-2-5.11-5.15-5.83ZM158.78,41.1a2,2,0,0,1-.42.66,2.06,2.06,0,0,1-.64.43,2,2,0,0,1-1.6,0,2.06,2.06,0,0,1-.64-.43,2,2,0,0,1-.42-.66,2.06,2.06,0,0,1-.15-.79,2.16,2.16,0,0,1,.15-.81,2.13,2.13,0,0,1,.42-.65,2,2,0,0,1,2.88,0,2.13,2.13,0,0,1,.42.65,2,2,0,0,1,.16.81,1.89,1.89,0,0,1-.16.79Zm.35-1.73a2.36,2.36,0,0,0-.51-.76,2.17,2.17,0,0,0-.75-.51,2.57,2.57,0,0,0-1.89,0,2.31,2.31,0,0,0-.76.51,2.34,2.34,0,0,0-.5.76,2.26,2.26,0,0,0-.19.94,2.21,2.21,0,0,0,.19.93,2.24,2.24,0,0,0,.5.76,2.48,2.48,0,0,0,.76.51,2.57,2.57,0,0,0,1.89,0,2.32,2.32,0,0,0,.75-.51,2.26,2.26,0,0,0,.51-.76,2.37,2.37,0,0,0,.18-.93,2.42,2.42,0,0,0-.18-.94Zm-63.19,3h3.59V21.67H95.94V42.35Zm0-22.59h3.61V16.05H95.94v3.71Zm-47.13,1.4a6.86,6.86,0,0,0-6,3.44,6.17,6.17,0,0,0-5.88-3.44,6.57,6.57,0,0,0-5.51,2.41V21.65H27.82v20.7h3.59s0-13.48,0-13.57h0a4.24,4.24,0,0,1,4.42-4.34c2.84-.08,4.37,1.64,4.39,3.85,0,.29,0,.58,0,.9V42.35h3.61V28.64a4.34,4.34,0,0,1,4.41-4.2c3.16-.05,4.36,1.88,4.42,4.23V42.35h3.6V28.56c0-4.65-2.69-7.48-7.49-7.4ZM8.74,30.09l4-10.36,4,10.36Zm5.59-16.25H11.4L0,42.35H3.9l3.63-9.19H18l3.65,9.19h4L14.38,14l-.05-.13ZM85.57,24.39V21.67H82V42.35h3.62V31.19c0-2.49,1.63-6.15,5.59-6.31a11.35,11.35,0,0,1,2,.13V21.67s-1.06-.07-1.74-.07a7,7,0,0,0-5.85,2.79Zm-22.81,5.7c.26-2.95,3.32-5.59,6.56-5.59,3.59,0,5.9,2.14,6.06,5.59Zm6.56-8.93c-5.95,0-10.43,4.67-10.43,10.86A10.54,10.54,0,0,0,69.58,42.88a10.82,10.82,0,0,0,8.89-4.41l-2.8-2.27a7.13,7.13,0,0,1-6.09,3.34,7,7,0,0,1-6.88-6.36H79.25V31.51c0-6.05-4.09-10.31-9.93-10.35Z" transform="translate(0 0)"/></g></g></g></svg>