<?xml version="1.0" standalone="no"?>
<!DOCTYPE svg PUBLIC "-//W3C//DTD SVG 20010904//EN"
 "http://www.w3.org/TR/2001/REC-SVG-20010904/DTD/svg10.dtd">
<svg version="1.0" xmlns="http://www.w3.org/2000/svg"
 width="708.000000pt" height="708.000000pt" viewBox="0 0 708.000000 708.000000"
 preserveAspectRatio="xMidYMid meet">
<metadata>
Created by potrace 1.11, written by Peter Selinger 2001-2013
</metadata>
<g transform="translate(0.000000,708.000000) scale(0.100000,-0.100000)"
fill="#000000" stroke="none">
<path d="M3505 6629 c-95 -12 -170 -29 -230 -51 -65 -25 -141 -61 -157 -76
-10 -8 -18 -12 -18 -8 0 4 -6 2 -12 -3 -53 -44 -77 -61 -83 -61 -4 0 -18 -11
-31 -25 -13 -14 -26 -25 -30 -25 -7 0 -37 -31 -102 -106 -61 -71 -62 -72 -62
-84 0 -5 -5 -10 -11 -10 -5 0 -7 -4 -4 -10 3 -5 2 -10 -2 -10 -10 0 -78 -131
-75 -142 1 -5 -3 -8 -10 -8 -6 0 -9 -3 -5 -6 3 -4 -1 -20 -9 -36 -8 -16 -12
-33 -9 -38 3 -6 1 -10 -5 -10 -6 0 -8 -4 -5 -10 3 -5 2 -10 -4 -10 -6 0 -8 -7
-5 -15 4 -8 2 -15 -2 -15 -5 0 -10 -10 -10 -22 -2 -22 -10 -60 -14 -65 -2 -2
-4 -7 -5 -13 -1 -5 -3 -11 -5 -12 -1 -2 -3 -10 -5 -18 -1 -8 -8 -35 -16 -60
-7 -25 -13 -49 -14 -55 -2 -5 -13 -43 -25 -84 -12 -41 -23 -81 -25 -90 -11
-48 -54 -191 -61 -202 -4 -7 -9 -27 -11 -44 -2 -16 -7 -41 -13 -55 -7 -21 -25
-82 -35 -125 -1 -5 -5 -17 -8 -25 -5 -13 -28 -94 -42 -150 -2 -8 -4 -15 -5
-15 -2 0 -5 -16 -13 -57 -3 -15 -8 -32 -12 -38 -4 -6 -9 -23 -11 -38 -3 -15
-9 -29 -15 -30 -5 -2 -7 -7 -4 -12 2 -4 -7 -47 -21 -96 -15 -49 -27 -93 -28
-99 -1 -5 -5 -16 -9 -22 -5 -7 -6 -13 -3 -13 2 0 0 -15 -5 -32 -6 -18 -12 -44
-15 -57 -3 -14 -8 -29 -12 -35 -3 -6 -7 -15 -7 -21 -1 -5 -7 -30 -14 -55 -7
-25 -15 -52 -17 -60 -2 -8 -10 -40 -19 -70 -9 -30 -21 -73 -26 -95 -5 -22 -12
-47 -16 -55 -7 -18 -10 -28 -16 -55 -3 -11 -17 -62 -32 -114 -15 -51 -28 -98
-29 -105 -1 -6 -8 -22 -15 -35 -10 -18 -10 -22 0 -16 8 6 10 4 3 -6 -4 -8 -10
-18 -11 -24 -1 -5 -14 -50 -28 -100 -14 -49 -33 -115 -41 -145 -9 -30 -19 -62
-22 -70 -3 -8 -5 -18 -4 -22 1 -3 -7 -32 -18 -62 -10 -31 -17 -56 -15 -56 2 0
-3 -16 -11 -35 -8 -19 -14 -36 -13 -37 1 -2 -5 -23 -12 -48 -15 -53 -13 -46
-23 -90 -5 -19 -13 -41 -18 -47 -6 -7 -8 -13 -5 -13 3 0 -1 -21 -9 -46 -7 -26
-11 -50 -8 -55 3 -5 0 -9 -5 -9 -6 0 -10 -3 -9 -7 1 -5 -4 -28 -11 -53 -7 -25
-15 -53 -16 -62 -2 -10 -6 -22 -9 -26 -3 -5 -7 -19 -10 -33 -5 -25 -54 -202
-64 -229 -3 -8 -6 -19 -8 -25 -1 -5 -11 -40 -22 -77 -11 -37 -17 -70 -14 -73
3 -3 0 -5 -6 -5 -7 0 -11 -3 -10 -7 4 -15 -14 -93 -21 -93 -4 0 -8 -15 -9 -32
-2 -18 -7 -35 -12 -36 -6 -2 -7 -8 -4 -13 3 -6 0 -16 -6 -24 -7 -8 -10 -15 -7
-15 3 0 -4 -33 -15 -72 -11 -40 -21 -77 -22 -83 -1 -5 -4 -15 -8 -20 -7 -12
-23 -87 -20 -97 1 -5 -2 -8 -6 -8 -5 0 -9 -6 -10 -12 0 -7 -3 -24 -7 -38 -12
-46 -14 -210 -3 -210 7 0 7 -5 -1 -13 -6 -8 -7 -17 -3 -21 4 -4 7 -11 8 -14 2
-34 41 -130 75 -187 43 -71 138 -171 188 -196 14 -8 28 -17 31 -20 7 -7 90
-46 117 -53 87 -26 223 -40 223 -23 0 8 3 9 8 2 4 -6 29 -11 55 -10 43 0 49 3
54 25 3 14 8 30 12 35 3 6 6 15 8 20 8 39 14 61 38 145 14 52 27 100 28 105 2
6 5 15 8 20 4 6 5 20 4 32 -1 12 2 20 7 17 4 -3 8 1 9 8 0 7 3 22 5 33 3 11 5
28 5 38 0 9 4 17 8 17 4 0 8 6 9 13 1 14 6 37 21 85 5 18 10 34 11 37 0 3 2
10 4 17 2 7 11 38 20 68 8 30 23 82 33 115 9 33 16 64 15 69 -2 4 2 13 7 20 5
6 11 23 13 36 2 14 7 31 11 38 5 6 5 12 1 12 -3 0 -2 6 3 13 6 6 10 24 9 39
-1 14 1 25 5 22 4 -2 10 12 14 32 3 20 10 46 14 58 5 11 9 24 10 28 1 4 11 38
22 75 19 65 22 77 34 123 3 11 8 30 11 43 3 12 6 28 6 35 1 6 5 12 9 12 5 0 6
7 3 15 -4 8 -1 15 5 15 7 0 11 6 9 12 -1 7 1 22 5 33 3 11 8 31 11 45 3 14 21
79 41 145 19 66 37 129 39 140 2 11 9 32 15 48 6 15 8 27 5 27 -4 0 -1 7 6 15
7 8 10 15 6 15 -3 0 -1 12 5 28 6 15 13 41 16 57 3 17 10 33 16 37 7 4 9 8 5
8 -3 0 -2 16 4 36 5 20 11 44 13 53 2 9 11 41 20 71 17 56 33 113 40 140 2 8
4 15 5 15 1 0 3 7 5 15 1 8 10 38 18 67 8 28 13 54 10 57 -4 3 -2 6 3 6 5 0
11 12 12 27 1 15 6 29 10 32 4 3 7 16 6 29 -1 12 2 22 6 22 4 0 10 12 13 28 3
15 8 37 11 50 3 12 8 30 10 40 6 24 47 164 53 182 4 8 7 22 8 30 2 22 17 73
24 85 6 11 10 28 13 58 1 9 5 17 8 17 3 0 6 8 7 18 0 9 4 26 7 37 13 46 28
111 29 123 0 6 5 12 10 12 5 0 7 6 4 14 -3 8 -3 17 1 20 3 4 7 12 8 19 7 33
13 55 24 82 6 17 11 31 11 33 -2 4 10 56 16 72 9 22 9 22 17 63 5 20 12 40 17
43 5 3 7 9 4 14 -3 5 1 25 9 45 8 19 12 35 9 35 -3 0 -1 6 4 13 6 6 11 19 12
27 2 29 8 55 19 83 7 15 14 39 16 52 3 14 7 28 10 33 3 5 7 19 10 33 10 47 14
64 24 89 5 14 10 28 11 33 0 4 1 8 2 10 4 14 9 36 11 52 2 11 5 22 8 25 4 4
19 52 35 120 2 8 11 36 19 63 8 26 15 49 16 52 0 3 0 6 1 8 0 1 2 9 4 17 15
61 50 176 54 180 4 3 6 14 5 25 0 11 4 26 9 33 5 6 6 12 2 12 -4 0 -3 6 3 13
6 6 11 17 12 22 2 19 12 60 17 75 3 8 7 21 9 29 1 8 6 26 10 40 4 14 7 28 7
31 -1 3 5 11 13 18 8 7 14 9 14 5 0 -4 42 -9 94 -10 51 -1 108 -4 127 -8 19
-3 48 -8 66 -10 18 -2 42 -9 53 -15 12 -7 24 -9 27 -6 3 3 12 -2 20 -10 8 -8
18 -12 23 -9 4 3 13 -2 20 -10 7 -8 19 -15 27 -15 7 0 16 -7 19 -15 4 -8 9
-13 13 -12 3 2 16 -7 28 -20 12 -13 20 -23 16 -23 -3 0 4 -9 17 -20 13 -11 20
-20 17 -20 -4 0 3 -17 14 -37 26 -46 55 -177 58 -263 2 -36 4 -263 6 -505 1
-242 6 -460 10 -485 5 -25 9 -54 9 -65 1 -11 5 -23 9 -26 4 -3 9 -16 10 -27 1
-12 6 -22 11 -22 5 0 7 -3 3 -6 -7 -8 41 -106 57 -116 6 -4 7 -8 1 -8 -5 0 22
-31 62 -69 106 -104 282 -181 421 -185 12 -1 22 -5 22 -10 0 -4 7 -5 16 -2 29
11 50 -10 48 -49 -3 -48 -8 -53 -72 -60 -29 -3 -63 -10 -77 -15 -14 -5 -25 -8
-25 -6 0 3 -24 -5 -52 -15 -29 -11 -57 -21 -63 -22 -5 -1 -12 -4 -15 -8 -3 -3
-30 -20 -60 -38 -30 -19 -67 -46 -82 -61 -14 -16 -29 -26 -32 -22 -3 3 -6 1
-6 -5 0 -5 -11 -23 -26 -39 -26 -30 -94 -144 -98 -167 -2 -6 -6 -20 -9 -29 -4
-10 -10 -26 -14 -35 -15 -43 -35 -156 -42 -240 -1 -10 -66 -13 -288 -14 -159
0 -282 -3 -275 -6 6 -2 12 -15 12 -28 0 -13 4 -26 9 -29 4 -3 25 -39 45 -81
20 -41 41 -75 47 -75 6 0 8 -4 5 -9 -3 -5 3 -20 14 -34 11 -14 20 -30 20 -37
0 -6 5 -8 10 -5 6 3 10 0 10 -8 0 -7 9 -23 20 -35 11 -12 20 -24 20 -27 0 -5
103 -108 132 -131 43 -35 188 -102 188 -87 0 3 6 1 13 -5 13 -11 15 -211 2
-332 -4 -36 -7 -74 -9 -85 -1 -11 -5 -26 -9 -32 -5 -7 -6 -13 -2 -13 3 0 -1
-16 -9 -35 -9 -20 -15 -36 -14 -38 5 -9 -40 -82 -71 -115 -40 -44 -155 -111
-183 -106 -10 1 -18 -1 -18 -6 0 -7 -59 -18 -136 -24 -22 -1 -46 -6 -54 -11
-9 -6 -11 -4 -5 4 6 10 3 11 -13 2 -14 -7 -23 -8 -27 -1 -4 6 -12 7 -18 3 -7
-4 -52 -8 -102 -9 -49 -1 -92 -2 -95 -3 -3 0 -6 -169 -6 -375 0 -328 2 -375
16 -378 25 -6 476 -1 595 6 103 7 134 10 195 21 14 2 43 7 65 10 23 3 52 8 65
11 14 3 34 7 45 9 11 2 32 8 48 14 15 6 27 8 27 5 0 -2 14 2 30 11 17 9 30 12
30 8 0 -4 5 -2 12 5 7 7 18 12 25 12 39 0 273 135 273 158 0 7 5 10 10 7 6 -3
10 -1 10 6 0 7 3 10 6 7 3 -4 22 12 42 35 20 23 44 47 52 54 8 7 12 13 8 13
-4 0 4 11 16 25 13 14 37 51 52 83 16 31 32 58 37 60 4 2 7 11 7 21 0 9 4 21
9 26 7 8 31 70 37 98 1 4 2 8 4 10 1 1 3 9 5 17 2 8 7 26 10 40 4 14 8 36 10
50 2 14 6 37 9 53 3 15 8 39 11 55 10 57 17 271 20 677 2 231 6 434 9 450 5
25 13 56 39 150 2 6 13 28 24 50 64 123 205 192 398 194 38 1 41 3 40 29 0 15
-4 33 -8 40 -5 6 -4 12 1 12 10 0 9 101 -1 118 -4 6 -4 13 1 16 10 6 8 87 -2
104 -3 6 -3 13 2 16 10 6 8 87 -2 104 -3 6 -3 13 2 16 7 4 9 74 2 101 -1 6 -1
12 0 15 6 14 4 142 -2 147 -5 2 -5 9 -2 15 12 18 11 108 -1 108 -7 0 -7 3 0 8
12 8 13 77 2 88 -4 4 -29 9 -55 10 -26 1 -47 3 -47 4 0 1 -17 4 -39 5 -21 2
-43 8 -48 13 -6 6 -16 8 -23 6 -37 -15 -171 85 -213 158 -24 43 -62 162 -66
213 -2 18 -6 38 -10 43 -3 6 -2 13 4 17 6 4 7 13 1 23 -4 9 -9 193 -10 407 -1
215 -3 417 -5 450 -6 85 -19 174 -35 238 -5 20 -6 37 -3 37 3 0 1 5 -6 12 -7
7 -12 20 -12 30 0 25 -73 201 -90 218 -3 3 -13 19 -22 36 -20 36 -56 80 -109
133 -40 40 -109 101 -112 99 -4 -3 -102 57 -105 64 -2 4 -15 8 -28 8 -13 0
-24 5 -24 10 0 6 -9 10 -20 10 -11 0 -20 4 -20 8 0 5 -6 9 -12 10 -15 1 -53
10 -53 12 0 1 -11 4 -25 6 -13 2 -27 8 -30 12 -3 4 -12 7 -20 7 -8 -1 -19 1
-25 4 -5 3 -14 6 -20 7 -5 1 -37 7 -70 14 -33 6 -73 13 -90 15 -16 2 -52 7
-80 10 -27 3 -68 8 -90 11 -71 8 -578 11 -640 3z"/>
<path d="M4727 32 c-31 -6 -12 -27 28 -30 34 -3 66 10 53 23 -7 7 -59 12 -81
7z"/>
<path d="M5050 10 c-11 -7 -1 -10 35 -9 37 0 45 3 30 9 -27 12 -47 12 -65 0z"/>
<path d="M578 3 c6 -2 18 -2 25 0 6 3 1 5 -13 5 -14 0 -19 -2 -12 -5z"/>
<path d="M663 3 c9 -2 25 -2 35 0 9 3 1 5 -18 5 -19 0 -27 -2 -17 -5z"/>
<path d="M728 3 c6 -2 18 -2 25 0 6 3 1 5 -13 5 -14 0 -19 -2 -12 -5z"/>
<path d="M3568 3 c7 -3 16 -2 19 1 4 3 -2 6 -13 5 -11 0 -14 -3 -6 -6z"/>
<path d="M3608 3 c7 -3 16 -2 19 1 4 3 -2 6 -13 5 -11 0 -14 -3 -6 -6z"/>
<path d="M3678 3 c7 -3 16 -2 19 1 4 3 -2 6 -13 5 -11 0 -14 -3 -6 -6z"/>
<path d="M3718 3 c7 -3 16 -2 19 1 4 3 -2 6 -13 5 -11 0 -14 -3 -6 -6z"/>
</g>
</svg>
